<mxfile host="app.diagrams.net" modified="2024-03-10T21:21:02.303Z" agent="Mozilla/5.0 (Windows NT 10.0; Win64; x64) AppleWebKit/537.36 (KHTML, like Gecko) Chrome/122.0.0.0 Safari/537.36 Edg/122.0.0.0" etag="XK8jljFrdDilxkNiMsqM" version="24.0.4" type="device">
  <diagram name="Página-1" id="dsjCyU439NSMKe0AS2bo">
    <mxGraphModel dx="2483" dy="759" grid="1" gridSize="10" guides="1" tooltips="1" connect="1" arrows="1" fold="1" page="1" pageScale="1" pageWidth="827" pageHeight="1169" math="0" shadow="0">
      <root>
        <mxCell id="0" />
        <mxCell id="1" parent="0" />
        <mxCell id="iLkC4G9COsM08LyxzJIu-3" value="" style="edgeStyle=orthogonalEdgeStyle;rounded=0;orthogonalLoop=1;jettySize=auto;html=1;" edge="1" parent="1" source="iLkC4G9COsM08LyxzJIu-1" target="iLkC4G9COsM08LyxzJIu-2">
          <mxGeometry relative="1" as="geometry" />
        </mxCell>
        <mxCell id="iLkC4G9COsM08LyxzJIu-1" value="INICIO" style="ellipse;whiteSpace=wrap;html=1;fillColor=#99CCFF;" vertex="1" parent="1">
          <mxGeometry x="330" y="20" width="120" height="80" as="geometry" />
        </mxCell>
        <mxCell id="iLkC4G9COsM08LyxzJIu-5" value="" style="edgeStyle=orthogonalEdgeStyle;rounded=0;orthogonalLoop=1;jettySize=auto;html=1;" edge="1" parent="1" source="iLkC4G9COsM08LyxzJIu-2" target="iLkC4G9COsM08LyxzJIu-4">
          <mxGeometry relative="1" as="geometry" />
        </mxCell>
        <mxCell id="iLkC4G9COsM08LyxzJIu-2" value="&quot;Pedir al usuario que ingrese los valores necesarios&quot;" style="shape=parallelogram;perimeter=parallelogramPerimeter;whiteSpace=wrap;html=1;fixedSize=1;fillColor=#80FF00;" vertex="1" parent="1">
          <mxGeometry x="300" y="200" width="180" height="60" as="geometry" />
        </mxCell>
        <mxCell id="iLkC4G9COsM08LyxzJIu-7" value="" style="edgeStyle=orthogonalEdgeStyle;rounded=0;orthogonalLoop=1;jettySize=auto;html=1;" edge="1" parent="1" source="iLkC4G9COsM08LyxzJIu-4" target="iLkC4G9COsM08LyxzJIu-6">
          <mxGeometry relative="1" as="geometry" />
        </mxCell>
        <mxCell id="iLkC4G9COsM08LyxzJIu-4" value="&quot;Solicitar el primer numero&quot;" style="shape=parallelogram;perimeter=parallelogramPerimeter;whiteSpace=wrap;html=1;fixedSize=1;fillColor=#80FF00;" vertex="1" parent="1">
          <mxGeometry x="320" y="340" width="140" height="60" as="geometry" />
        </mxCell>
        <mxCell id="iLkC4G9COsM08LyxzJIu-9" value="" style="edgeStyle=orthogonalEdgeStyle;rounded=0;orthogonalLoop=1;jettySize=auto;html=1;" edge="1" parent="1" source="iLkC4G9COsM08LyxzJIu-6" target="iLkC4G9COsM08LyxzJIu-8">
          <mxGeometry relative="1" as="geometry" />
        </mxCell>
        <mxCell id="iLkC4G9COsM08LyxzJIu-6" value="&quot;Solicitar segundo numero&quot;" style="shape=parallelogram;perimeter=parallelogramPerimeter;whiteSpace=wrap;html=1;fixedSize=1;fillColor=#80FF00;" vertex="1" parent="1">
          <mxGeometry x="320" y="480" width="140" height="60" as="geometry" />
        </mxCell>
        <mxCell id="iLkC4G9COsM08LyxzJIu-11" value="" style="edgeStyle=orthogonalEdgeStyle;rounded=0;orthogonalLoop=1;jettySize=auto;html=1;" edge="1" parent="1" source="iLkC4G9COsM08LyxzJIu-8" target="iLkC4G9COsM08LyxzJIu-10">
          <mxGeometry relative="1" as="geometry" />
        </mxCell>
        <mxCell id="iLkC4G9COsM08LyxzJIu-13" value="" style="edgeStyle=orthogonalEdgeStyle;rounded=0;orthogonalLoop=1;jettySize=auto;html=1;" edge="1" parent="1" source="iLkC4G9COsM08LyxzJIu-8" target="iLkC4G9COsM08LyxzJIu-12">
          <mxGeometry relative="1" as="geometry" />
        </mxCell>
        <mxCell id="iLkC4G9COsM08LyxzJIu-8" value="¿El segundo numero es 0?" style="rhombus;whiteSpace=wrap;html=1;fillColor=#474D0A;" vertex="1" parent="1">
          <mxGeometry x="280" y="620" width="220" height="170" as="geometry" />
        </mxCell>
        <mxCell id="iLkC4G9COsM08LyxzJIu-15" value="" style="edgeStyle=orthogonalEdgeStyle;rounded=0;orthogonalLoop=1;jettySize=auto;html=1;" edge="1" parent="1" source="iLkC4G9COsM08LyxzJIu-10" target="iLkC4G9COsM08LyxzJIu-14">
          <mxGeometry relative="1" as="geometry" />
        </mxCell>
        <mxCell id="iLkC4G9COsM08LyxzJIu-10" value="SI" style="shape=parallelogram;perimeter=parallelogramPerimeter;whiteSpace=wrap;html=1;fixedSize=1;fillColor=#80FF00;" vertex="1" parent="1">
          <mxGeometry x="30" y="675" width="120" height="60" as="geometry" />
        </mxCell>
        <mxCell id="iLkC4G9COsM08LyxzJIu-17" value="" style="edgeStyle=orthogonalEdgeStyle;rounded=0;orthogonalLoop=1;jettySize=auto;html=1;" edge="1" parent="1" source="iLkC4G9COsM08LyxzJIu-12">
          <mxGeometry relative="1" as="geometry">
            <mxPoint x="690" y="815" as="targetPoint" />
          </mxGeometry>
        </mxCell>
        <mxCell id="iLkC4G9COsM08LyxzJIu-12" value="NO" style="shape=parallelogram;perimeter=parallelogramPerimeter;whiteSpace=wrap;html=1;fixedSize=1;fillColor=#80FF00;" vertex="1" parent="1">
          <mxGeometry x="630" y="675" width="120" height="60" as="geometry" />
        </mxCell>
        <mxCell id="iLkC4G9COsM08LyxzJIu-14" value="&quot;Mostrar mensaje: no se puede dividir entre cero" style="shape=parallelogram;perimeter=parallelogramPerimeter;whiteSpace=wrap;html=1;fixedSize=1;fillColor=#80FF00;" vertex="1" parent="1">
          <mxGeometry x="-30" y="815" width="220" height="60" as="geometry" />
        </mxCell>
        <mxCell id="iLkC4G9COsM08LyxzJIu-18" value="FIN" style="ellipse;whiteSpace=wrap;html=1;fillColor=#99CCFF;" vertex="1" parent="1">
          <mxGeometry x="630" y="815" width="120" height="80" as="geometry" />
        </mxCell>
        <mxCell id="iLkC4G9COsM08LyxzJIu-21" style="edgeStyle=orthogonalEdgeStyle;rounded=0;orthogonalLoop=1;jettySize=auto;html=1;entryX=-0.048;entryY=0.348;entryDx=0;entryDy=0;entryPerimeter=0;" edge="1" parent="1" target="iLkC4G9COsM08LyxzJIu-18">
          <mxGeometry relative="1" as="geometry">
            <mxPoint x="160" y="846.08" as="sourcePoint" />
            <mxPoint x="593.1599999999999" y="843.9200000000002" as="targetPoint" />
          </mxGeometry>
        </mxCell>
      </root>
    </mxGraphModel>
  </diagram>
</mxfile>
